# xmcd
#
# Track frame offsets: 
#        150
#        23005
#        41442
#        61337
#        83930
#        103270
#        120902
#        148360
#        174517
#        191185
#        211685
#        227815
#        253120
#        285555
#        303882
#        325245
#
# Disc length: 4677 seconds
#
# Revision: 8
# Processed by: cddbd v1.5.2PL0 Copyright (c) Steve Scherf et al.
# Submitted via: ExactAudioCopyFreeDBPlugin 1.0
#
DISCID=e0124310
DTITLE=Various Artist - Electro Jazz Session [CD2)
DYEAR=2002
DGENRE=Jazz
TTITLE0=Kruder and Dorfmeister - Black Baby
TTITLE1=The Vogado Projects feat. Lucy Gale - Never Come Back (The A.c
TTITLE1=m.e. Mix)
TTITLE2=Extended Spirit - Solid Water (Rainer Trüby Trio Remix)
TTITLE3=Modaji - The Latin Protocol
TTITLE4=Bugge Wesseltoft - Sharing
TTITLE5=De Chambord - The Roof Is On Fire
TTITLE6=The Underwolves - Bird Song (Earthbound Remix)
TTITLE7=Wibutee - Once You Get There
TTITLE8=Omar - Essensual
TTITLE9=Sven Van Hees - Konnichi Wa-Wah
TTITLE10=Koop - Soul For Sahib
TTITLE11=The Cinematic Orchestra - Ode To The Big Sea
TTITLE12=Colorblind feat. DJ Spider and Jun Matsuoka - Nu-Swing!
TTITLE13=Zero dB - Click
TTITLE14=Dimitri From Paris - Dim's Jazz (Latin's In The House)
TTITLE15=Mikael Delta - Melt More
EXTD=YEAR: 2002
EXTT0=(P)1997
EXTT1=(P)2001
EXTT2=(P)1998
EXTT3=(P)2002
EXTT4=(P)1998
EXTT5=(P)2002
EXTT6=(P)2001
EXTT7=(P)1999
EXTT8=(P)2000
EXTT9=(P)2002
EXTT10=(P)2001
EXTT11=(P)1999
EXTT12=(P)2001
EXTT13=(P)2001
EXTT14=(P)1995
EXTT15=(P)2001
PLAYORDER=
